# 3ds Max Wavefront OBJ Exporter v0.97b - (c)2007 guruware
# File Created: 29.04.2015 18:49:16

mtllib Star.mtl

#
# object Star
#

v  0.1330 0.1502 0.1021
v  -0.0009 -0.0002 0.1007
v  0.3925 0.0857 0.1042
v  0.0390 0.4005 0.1017
v  -0.1025 0.1736 0.1001
v  -0.3696 0.1616 0.0977
v  -0.1975 -0.0431 0.0989
v  -0.2686 -0.3008 0.0978
v  -0.0208 -0.2005 0.1001
v  0.2023 -0.3477 0.1018
v  0.1835 -0.0810 0.1021
v  0.1348 0.1505 -0.0992
v  0.3942 0.0860 -0.0971
v  0.0408 0.4008 -0.0996
v  -0.1007 0.1740 -0.1012
v  -0.3678 0.1619 -0.1036
v  -0.1958 -0.0428 -0.1024
v  -0.2669 -0.3005 -0.1035
v  -0.0191 -0.2002 -0.1012
v  0.2041 -0.3474 -0.0995
v  0.1852 -0.0807 -0.0992
v  0.0009 0.0002 -0.1007
# 22 vertices

vn 0.3655 0.4171 0.8321
vn -0.0086 -0.0017 1.0000
vn 0.8108 0.1771 0.5578
vn 0.0780 0.8298 0.5526
vn -0.2900 0.4824 0.8265
vn -0.7692 0.3345 0.5445
vn -0.5546 -0.1209 0.8232
vn -0.5599 -0.6243 0.5447
vn -0.0627 -0.5590 0.8268
vn 0.4166 -0.7216 0.5529
vn 0.5060 -0.2265 0.8322
vn 0.3798 0.4199 -0.8243
vn 0.8203 0.1789 -0.5432
vn 0.0875 0.8316 -0.5484
vn -0.2757 0.4851 -0.8298
vn -0.7597 0.3363 -0.5565
vn -0.5403 -0.1181 -0.8331
vn -0.5504 -0.6225 -0.5563
vn -0.0484 -0.5562 -0.8296
vn 0.4261 -0.7197 -0.5481
vn 0.5203 -0.2238 -0.8241
vn 0.0086 0.0017 -1.0000
# 22 vertex normals

g Star
usemtl Material_008
s off
f 1//1 2//2 3//3 
f 2//2 1//1 4//4 
f 2//2 4//4 5//5 
f 2//2 5//5 6//6 
f 2//2 6//6 7//7 
f 2//2 7//7 8//8 
f 2//2 8//8 9//9 
f 2//2 9//9 10//10 
f 2//2 10//10 11//11 
f 2//2 11//11 3//3 
f 12//12 1//1 3//3 
f 3//3 13//13 12//12 
f 1//1 12//12 14//14 
f 14//14 4//4 1//1 
f 4//4 14//14 15//15 
f 15//15 5//5 4//4 
f 5//5 15//15 16//16 
f 16//16 6//6 5//5 
f 6//6 16//16 17//17 
f 17//17 7//7 6//6 
f 7//7 17//17 18//18 
f 18//18 8//8 7//7 
f 8//8 18//18 19//19 
f 19//19 9//9 8//8 
f 9//9 19//19 20//20 
f 20//20 10//10 9//9 
f 10//10 20//20 21//21 
f 21//21 11//11 10//10 
f 11//11 21//21 13//13 
f 13//13 3//3 11//11 
f 22//22 12//12 13//13 
f 12//12 22//22 14//14 
f 14//14 22//22 15//15 
f 15//15 22//22 16//16 
f 16//16 22//22 17//17 
f 17//17 22//22 18//18 
f 18//18 22//22 19//19 
f 19//19 22//22 20//20 
f 20//20 22//22 21//21 
f 21//21 22//22 13//13 
# 40 faces

